<?xml version="1.0" standalone="no"?><!DOCTYPE svg PUBLIC "-//W3C//DTD SVG 1.1//EN" "http://www.w3.org/Graphics/SVG/1.1/DTD/svg11.dtd"><svg t="1543368526823" class="icon" style="" viewBox="0 0 512 512" version="1.1" xmlns="http://www.w3.org/2000/svg" p-id="4690" data-spm-anchor-id="a313x.7781069.0.i4" xmlns:xlink="http://www.w3.org/1999/xlink" width="256" height="256"><defs><style type="text/css"></style></defs><path d="M1005.044816 382.861388c0-27.093837-10.549429-52.564508-29.707794-71.720591-19.156082-19.158365-44.635886-29.710077-71.745702-29.710076-44.95093 0-83.931994 29.986311-96.905896 71.403263a161.152167 161.152167 0 0 0-37.951461-4.538469c-36.880766 0-73.734137 12.652009-103.770673 35.629719-13.807173 10.565409-28.73983 18.966599-44.4601 25.114534-0.865231-129.805228-52.49602-252.30964-135.343621-318.551194-5.200519-9.410246-11.633821-18.14246-19.297624-25.847355l-13.763797-13.841417-10.535731 11.973978c-34.04993-16.34351-69.800645-21.776888-104.234107-15.656347-25.041481 4.456283-46.021625 21.110272-56.1236 44.549134a76.062727 76.062727 0 0 0-3.2235 51.391081 108.651581 108.651581 0 0 0-10.948941 5.864853L18.955184 0 202.450406 245.259947l-51.60796 112.801951c-11.343889 24.783509-9.086069 53.121544 6.03379 75.797907a77.959844 77.959844 0 0 0 64.99279 34.762205 77.971258 77.971258 0 0 0 39.83488-10.969488l39.428517-23.443429c-18.450656 41.626981-38.684282 93.568249-38.684282 121.148351 0 51.886478 18.12648 101.937478 51.03951 140.94137a214.378726 214.378726 0 0 0 39.006176 35.963028v291.735875h205.463876V772.907162c53.546169-4.520205 125.853473-36.298618 189.707081-70.236685a1069.535361 1069.535361 0 0 0-0.223728 21.032653v300.29687h203.180945V721.607398l54.425098 99.373746V382.861388z m-453.403985-138.352526c22.117045 53.660316 33.182416 113.705992 32.285223 174.50047a181.146085 181.146085 0 0 1-28.758094 2.29663h-21.470975c-5.148012-36.940122-20.224494-128.978807-50.676523-200.231397 11.581314-18.891262 17.569444-40.798277 18.201816-62.874229 19.815849 24.575763 37.079381 53.941116 50.418553 86.308526zM314.750113 106.124375c5.303251-12.311852 15.866377-20.710759 28.970406-23.043915 24.055254-4.269083 48.38446-1.417701 72.569841 8.410321L391.413251 119.762611c-2.707557 2.502093-6.472112 3.874136-10.86219 3.874135-15.446318 0-42.199997 3.62073-67.629577 8.965074-2.472415-8.615785-1.899399-17.827416 1.828629-26.477445z m-155.122944 20.925355l74.307152 44.60849-14.174724 35.766695-60.132428-80.375185z m83.406919 299.207911a41.490005 41.490005 0 0 1-55.765179-12.663423c-7.92634-11.884944-9.15684-27.340393-3.209802-40.334842l73.704458-161.097377c9.428509-20.603461 27.386052-35.472197 49.265672-40.791428 26.276547-6.387644 57.88374-11.20463 73.750117-11.20463 14.071993 0 27.121232-5.269007 36.736941-14.829926l34.54076-39.18881c18.04886 30.664342 17.149385 73.469316-4.417473 102.07217l-6.570278 8.713952 4.561298 9.914773a341.024377 341.024377 0 0 1 3.817062 8.618068c9.691046 22.701475 10.168179 48.612753-0.009131 71.101916-8.615785 19.039653-23.621497 34.200604-44.93495 45.313917-30.189492 15.743099-62.12771 17.644781-62.447321 17.660762a19.929996 19.929996 0 0 0-8.161482 2.696142l-90.860692 54.018736z m184.794211 340.631713v163.510436h-38.809844v-176.995716a219.369215 219.369215 0 0 0 38.809844 13.48528z m-38.809844 220.583735v-20.546388h38.809844v20.546388h-38.809844z m75.336755 0v-20.546388h57.073299v20.546388h-57.073299zM545.476914 736.930437c-1.645994 0-3.264593-0.043376-4.807854-0.125561l-19.240551-1.031885v194.626799h-57.073299v-193.761568l-15.179215-2.597976c-42.247939-7.234611-80.521293-29.002368-107.772652-61.296724-27.36094-32.4222-42.430573-74.113103-42.430573-117.386078 0-24.694475 28.392825-93.668698 56.11675-150.488592 14.165593-1.938209 39.759543-7.01545 65.145747-20.005333 21.00754-10.75261 44.103963-28.10061 58.917908-55.605374 14.245495 59.49549 20.245041 111.530358 20.336358 112.347648l1.828628 16.222514h53.854365c47.964401 0 93.607059-15.52622 131.987712-44.893857 23.7014-18.131046 52.671806-28.114307 81.576008-28.114307a124.191499 124.191499 0 0 1 42.037909 7.271139c4.362683 1.563808 7.853286 3.075109 10.375925 4.495093a182.524976 182.524976 0 0 1 39.606587 30.00914c34.394653 34.394653 53.338422 80.023614 53.338422 128.478845v375.323147h-57.073299v-190.33717l-11.063088-4.743932c-23.790434-10.206989-39.161415-33.890125-39.161415-60.335609V627.258386l-27.443125 15.953129c-103.951024 60.436058-187.008655 93.718923-233.877248 93.718922z m275.015682 26.376996v167.090074h-36.526911v-203.973122c8.693405 15.122141 21.174194 27.917975 36.526911 36.883048z m-36.526911 224.165656v-20.546388h36.526911v20.546388h-36.526911z m73.053822 0v-20.546388h57.0733v20.546388h-57.0733z m111.498398-309.227701l-17.898187-32.680171v-90.488574c0-58.212482-22.742568-113.014264-64.036242-154.31022a219.172883 219.172883 0 0 0-45.681468-34.933425c7.588466-27.628043 33.125343-47.875366 62.689312-47.875366 17.352566 0 33.659549 6.75063 45.914327 19.009974 12.259345 12.257062 19.009974 28.557196 19.009975 45.893782v295.384z" p-id="4691" fill="#1296db"></path><path d="M367.545197 292.44815c16.802379-24.518689 10.524316-58.134862-13.994373-74.937241a53.648901 53.648901 0 0 0-30.438332-9.442207c-17.806869 0-34.442595 8.761893-44.498909 23.438862-16.800096 24.518689-10.522033 58.137145 13.996655 74.934959a53.628355 53.628355 0 0 0 30.438332 9.44449h0.002283a53.918287 53.918287 0 0 0 44.494344-23.438863z m-30.132419-20.646836a17.400507 17.400507 0 0 1-14.364208 7.558787 17.265814 17.265814 0 0 1-9.793778-3.047714c-7.90351-5.415115-9.928471-16.254476-4.513356-24.157986a17.405073 17.405073 0 0 1 14.368773-7.558788c3.497452 0 6.885323 1.054715 9.791496 3.045432a17.268097 17.268097 0 0 1 7.259723 11.145273 17.268097 17.268097 0 0 1-2.74865 13.014996z" p-id="4692" fill="#1296db"></path></svg>